<svg width="211" height="74" viewBox="0 0 211 74" fill="none" xmlns="http://www.w3.org/2000/svg">
<g clip-path="url(#clip0_5_106)" filter="url(#filter0_d_5_106)">
<path d="M32.3333 16.6667C32.3333 15.7467 31.5883 15 30.6667 15C29.745 15 29 15.7467 29 16.6667V20C29 20.92 29.745 21.6667 30.6667 21.6667C31.5883 21.6667 32.3333 20.92 32.3333 20V16.6667ZM12.3333 20C12.3333 20.92 11.5883 21.6667 10.6667 21.6667C9.745 21.6667 9 20.92 9 20V16.6667C9 15.7467 9.745 15 10.6667 15C11.5883 15 12.3333 15.7467 12.3333 16.6667V20ZM34 28.3333V45H7.33333V28.3333H34ZM37.3333 18.3333H34V20C34 21.8383 32.505 23.3333 30.6667 23.3333C28.8283 23.3333 27.3333 21.8383 27.3333 20V18.3333H14V20C14 21.8383 12.505 23.3333 10.6667 23.3333C8.82833 23.3333 7.33333 21.8383 7.33333 20V18.3333H4V48.3333H37.3333V18.3333ZM17.9233 41.6667C15.7267 41.6667 14.27 40.3983 14.31 37.9917H16.385C16.4217 39.0583 16.8517 39.8367 17.8967 39.8367C18.5883 39.8367 19.2833 39.425 19.2833 38.505C19.2833 37.3383 18.475 37.2533 17.1167 37.2533V35.625C18.0717 35.7083 19.11 35.5717 19.11 34.6117C19.11 33.8533 18.495 33.5067 17.925 33.5067C16.9667 33.5067 16.6033 34.21 16.6217 35.1783H14.5283C14.615 32.8433 16.0317 31.6667 17.91 31.6667C19.5233 31.6667 21.1917 32.6883 21.1917 34.4C21.1917 35.2867 20.8017 35.975 20.1283 36.3117C21.0083 36.65 21.54 37.4467 21.54 38.4667C21.5383 40.4683 19.885 41.6667 17.9233 41.6667ZM27.0233 41.6667H24.8467V35.42H22.4917V33.7083C23.9867 33.7483 25.0333 33.32 25.2533 31.8533H27.0233V41.6667ZM44 23.3333V55H7.33333V51.6667H40.6667V23.3333H44Z" fill="white"/>
</g>
<g filter="url(#filter1_d_5_106)">
<path d="M72.388 29.428C72.34 29.476 72.328 29.524 72.352 29.572C72.376 29.62 72.424 29.644 72.496 29.644H82.252C82.372 29.644 82.468 29.692 82.54 29.788C82.636 29.86 82.684 29.956 82.684 30.076V33.568C82.684 33.688 82.636 33.796 82.54 33.892C82.468 33.964 82.372 34 82.252 34H66.052C65.932 34 65.824 33.964 65.728 33.892C65.656 33.796 65.62 33.688 65.62 33.568V30.256C65.62 30.04 65.692 29.86 65.836 29.716C67.012 28.564 68.212 27.316 69.436 25.972C70.66 24.604 71.428 23.752 71.74 23.416C72.412 22.624 73.096 21.868 73.792 21.148C75.976 18.724 77.068 16.924 77.068 15.748C77.068 14.908 76.768 14.224 76.168 13.696C75.568 13.144 74.788 12.868 73.828 12.868C72.868 12.868 72.088 13.144 71.488 13.696C70.888 14.224 70.588 14.932 70.588 15.82V16.72C70.588 16.84 70.54 16.948 70.444 17.044C70.372 17.116 70.276 17.152 70.156 17.152H65.908C65.788 17.152 65.68 17.116 65.584 17.044C65.512 16.948 65.476 16.84 65.476 16.72V15.028C65.548 13.732 65.956 12.592 66.7 11.608C67.444 10.6 68.428 9.832 69.652 9.304C70.9 8.776 72.292 8.512 73.828 8.512C75.532 8.512 77.008 8.836 78.256 9.484C79.528 10.108 80.5 10.96 81.172 12.04C81.868 13.12 82.216 14.32 82.216 15.64C82.216 16.648 81.964 17.68 81.46 18.736C80.956 19.792 80.2 20.932 79.192 22.156C78.448 23.092 77.644 24.016 76.78 24.928C75.916 25.84 74.632 27.16 72.928 28.888L72.388 29.428ZM99.1276 34C98.8636 34 98.6956 33.88 98.6236 33.64L92.2516 9.268L92.2156 9.124C92.2156 8.908 92.3476 8.8 92.6116 8.8H97.0756C97.3156 8.8 97.4716 8.92 97.5436 9.16L100.964 23.812C100.988 23.908 101.024 23.956 101.072 23.956C101.12 23.956 101.156 23.908 101.18 23.812L104.492 9.196C104.564 8.932 104.72 8.8 104.96 8.8H109.316C109.58 8.8 109.748 8.92 109.82 9.16L113.42 23.812C113.444 23.884 113.48 23.932 113.528 23.956C113.576 23.956 113.612 23.908 113.636 23.812L116.948 9.196C117.02 8.932 117.176 8.8 117.416 8.8H121.664C122 8.8 122.132 8.956 122.06 9.268L116.156 33.64C116.084 33.88 115.916 34 115.652 34H111.368C111.128 34 110.972 33.88 110.9 33.64L107.228 18.052C107.204 17.956 107.168 17.908 107.12 17.908C107.072 17.908 107.036 17.956 107.012 18.052L103.592 33.604C103.544 33.868 103.388 34 103.124 34H99.1276ZM142.403 12.724C142.403 12.844 142.355 12.952 142.259 13.048C142.187 13.12 142.091 13.156 141.971 13.156H130.163C130.043 13.156 129.983 13.216 129.983 13.336V18.916C129.983 19.036 130.043 19.096 130.163 19.096H137.903C138.023 19.096 138.119 19.144 138.191 19.24C138.287 19.312 138.335 19.408 138.335 19.528V23.02C138.335 23.14 138.287 23.248 138.191 23.344C138.119 23.416 138.023 23.452 137.903 23.452H130.163C130.043 23.452 129.983 23.512 129.983 23.632V29.464C129.983 29.584 130.043 29.644 130.163 29.644H141.971C142.091 29.644 142.187 29.692 142.259 29.788C142.355 29.86 142.403 29.956 142.403 30.076V33.568C142.403 33.688 142.355 33.796 142.259 33.892C142.187 33.964 142.091 34 141.971 34H125.339C125.219 34 125.111 33.964 125.015 33.892C124.943 33.796 124.907 33.688 124.907 33.568V9.232C124.907 9.112 124.943 9.016 125.015 8.944C125.111 8.848 125.219 8.8 125.339 8.8H141.971C142.091 8.8 142.187 8.848 142.259 8.944C142.355 9.016 142.403 9.112 142.403 9.232V12.724ZM163.426 12.724C163.426 12.844 163.378 12.952 163.282 13.048C163.21 13.12 163.114 13.156 162.994 13.156H151.186C151.066 13.156 151.006 13.216 151.006 13.336V18.916C151.006 19.036 151.066 19.096 151.186 19.096H158.926C159.046 19.096 159.142 19.144 159.214 19.24C159.31 19.312 159.358 19.408 159.358 19.528V23.02C159.358 23.14 159.31 23.248 159.214 23.344C159.142 23.416 159.046 23.452 158.926 23.452H151.186C151.066 23.452 151.006 23.512 151.006 23.632V29.464C151.006 29.584 151.066 29.644 151.186 29.644H162.994C163.114 29.644 163.21 29.692 163.282 29.788C163.378 29.86 163.426 29.956 163.426 30.076V33.568C163.426 33.688 163.378 33.796 163.282 33.892C163.21 33.964 163.114 34 162.994 34H146.362C146.242 34 146.134 33.964 146.038 33.892C145.966 33.796 145.93 33.688 145.93 33.568V9.232C145.93 9.112 145.966 9.016 146.038 8.944C146.134 8.848 146.242 8.8 146.362 8.8H162.994C163.114 8.8 163.21 8.848 163.282 8.944C163.378 9.016 163.426 9.112 163.426 9.232V12.724ZM167.386 34C167.266 34 167.158 33.964 167.062 33.892C166.99 33.796 166.954 33.688 166.954 33.568V9.232C166.954 9.112 166.99 9.016 167.062 8.944C167.158 8.848 167.266 8.8 167.386 8.8H171.598C171.718 8.8 171.814 8.848 171.886 8.944C171.982 9.016 172.03 9.112 172.03 9.232V19.312C172.03 19.384 172.054 19.432 172.102 19.456C172.15 19.456 172.198 19.432 172.246 19.384L180.562 9.052C180.706 8.884 180.886 8.8 181.102 8.8H185.854C186.046 8.8 186.166 8.86 186.214 8.98C186.262 9.076 186.238 9.196 186.142 9.34L178.114 19.6C178.042 19.696 178.03 19.78 178.078 19.852L186.574 33.496C186.622 33.64 186.646 33.724 186.646 33.748C186.646 33.916 186.526 34 186.286 34H181.534C181.294 34 181.126 33.904 181.03 33.712L174.622 23.344C174.598 23.296 174.562 23.272 174.514 23.272C174.466 23.272 174.418 23.296 174.37 23.344L172.102 26.188C172.054 26.284 172.03 26.356 172.03 26.404V33.568C172.03 33.688 171.982 33.796 171.886 33.892C171.814 33.964 171.718 34 171.598 34H167.386ZM197.32 34.288C195.4 34.288 193.72 33.988 192.28 33.388C190.84 32.764 189.724 31.888 188.932 30.76C188.164 29.608 187.78 28.276 187.78 26.764V25.972C187.78 25.852 187.816 25.756 187.888 25.684C187.984 25.588 188.092 25.54 188.212 25.54H192.316C192.436 25.54 192.532 25.588 192.604 25.684C192.7 25.756 192.748 25.852 192.748 25.972V26.512C192.748 27.472 193.192 28.288 194.08 28.96C194.968 29.608 196.168 29.932 197.68 29.932C198.952 29.932 199.9 29.668 200.524 29.14C201.148 28.588 201.46 27.916 201.46 27.124C201.46 26.548 201.268 26.068 200.884 25.684C200.5 25.276 199.972 24.928 199.3 24.64C198.652 24.328 197.608 23.908 196.168 23.38C194.56 22.828 193.192 22.264 192.064 21.688C190.96 21.112 190.024 20.332 189.256 19.348C188.512 18.34 188.14 17.104 188.14 15.64C188.14 14.2 188.512 12.94 189.256 11.86C190 10.78 191.032 9.952 192.352 9.376C193.672 8.8 195.196 8.512 196.924 8.512C198.748 8.512 200.368 8.836 201.784 9.484C203.224 10.132 204.34 11.044 205.132 12.22C205.948 13.372 206.356 14.716 206.356 16.252V16.792C206.356 16.912 206.308 17.02 206.212 17.116C206.14 17.188 206.044 17.224 205.924 17.224H201.784C201.664 17.224 201.556 17.188 201.46 17.116C201.388 17.02 201.352 16.912 201.352 16.792V16.504C201.352 15.496 200.932 14.644 200.092 13.948C199.276 13.228 198.148 12.868 196.708 12.868C195.58 12.868 194.692 13.108 194.044 13.588C193.42 14.068 193.108 14.728 193.108 15.568C193.108 16.168 193.288 16.672 193.648 17.08C194.032 17.488 194.584 17.86 195.304 18.196C196.048 18.508 197.188 18.94 198.724 19.492C200.428 20.116 201.76 20.668 202.72 21.148C203.704 21.628 204.58 22.348 205.348 23.308C206.14 24.244 206.536 25.468 206.536 26.98C206.536 29.236 205.708 31.024 204.052 32.344C202.396 33.64 200.152 34.288 197.32 34.288Z" fill="white"/>
</g>
<g filter="url(#filter2_d_5_106)">
<path d="M65.752 65C65.672 65 65.6 64.976 65.536 64.928C65.488 64.864 65.464 64.792 65.464 64.712V48.488C65.464 48.408 65.488 48.344 65.536 48.296C65.6 48.232 65.672 48.2 65.752 48.2H68.56C68.64 48.2 68.704 48.232 68.752 48.296C68.816 48.344 68.848 48.408 68.848 48.488V64.712C68.848 64.792 68.816 64.864 68.752 64.928C68.704 64.976 68.64 65 68.56 65H65.752ZM81.4167 48.488C81.4167 48.408 81.4407 48.344 81.4887 48.296C81.5527 48.232 81.6247 48.2 81.7047 48.2H84.5127C84.5927 48.2 84.6567 48.232 84.7047 48.296C84.7687 48.344 84.8007 48.408 84.8007 48.488V64.712C84.8007 64.792 84.7687 64.864 84.7047 64.928C84.6567 64.976 84.5927 65 84.5127 65H81.8007C81.6407 65 81.5287 64.936 81.4647 64.808L75.2487 54.536C75.2167 54.488 75.1847 54.472 75.1527 54.488C75.1207 54.488 75.1047 54.52 75.1047 54.584L75.1527 64.712C75.1527 64.792 75.1207 64.864 75.0567 64.928C75.0087 64.976 74.9447 65 74.8647 65H72.0567C71.9767 65 71.9047 64.976 71.8407 64.928C71.7927 64.864 71.7687 64.792 71.7687 64.712V48.488C71.7687 48.408 71.7927 48.344 71.8407 48.296C71.9047 48.232 71.9767 48.2 72.0567 48.2H74.7687C74.9287 48.2 75.0407 48.264 75.1047 48.392L81.2967 58.616C81.3287 58.664 81.3607 58.688 81.3927 58.688C81.4247 58.672 81.4407 58.632 81.4407 58.568L81.4167 48.488ZM99.3216 48.2C99.4016 48.2 99.4656 48.232 99.5136 48.296C99.5776 48.344 99.6096 48.408 99.6096 48.488V50.84C99.6096 50.92 99.5776 50.992 99.5136 51.056C99.4656 51.104 99.4016 51.128 99.3216 51.128H95.0256C94.9456 51.128 94.9056 51.168 94.9056 51.248V64.712C94.9056 64.792 94.8736 64.864 94.8096 64.928C94.7616 64.976 94.6976 65 94.6176 65H91.8096C91.7296 65 91.6576 64.976 91.5936 64.928C91.5456 64.864 91.5216 64.792 91.5216 64.712V51.248C91.5216 51.168 91.4816 51.128 91.4016 51.128H87.2256C87.1456 51.128 87.0736 51.104 87.0096 51.056C86.9616 50.992 86.9376 50.92 86.9376 50.84V48.488C86.9376 48.408 86.9616 48.344 87.0096 48.296C87.0736 48.232 87.1456 48.2 87.2256 48.2H99.3216ZM113.433 50.816C113.433 50.896 113.401 50.968 113.337 51.032C113.289 51.08 113.225 51.104 113.145 51.104H105.273C105.193 51.104 105.153 51.144 105.153 51.224V54.944C105.153 55.024 105.193 55.064 105.273 55.064H110.433C110.513 55.064 110.577 55.096 110.625 55.16C110.689 55.208 110.721 55.272 110.721 55.352V57.68C110.721 57.76 110.689 57.832 110.625 57.896C110.577 57.944 110.513 57.968 110.433 57.968H105.273C105.193 57.968 105.153 58.008 105.153 58.088V61.976C105.153 62.056 105.193 62.096 105.273 62.096H113.145C113.225 62.096 113.289 62.128 113.337 62.192C113.401 62.24 113.433 62.304 113.433 62.384V64.712C113.433 64.792 113.401 64.864 113.337 64.928C113.289 64.976 113.225 65 113.145 65H102.057C101.977 65 101.905 64.976 101.841 64.928C101.793 64.864 101.769 64.792 101.769 64.712V48.488C101.769 48.408 101.793 48.344 101.841 48.296C101.905 48.232 101.977 48.2 102.057 48.2H113.145C113.225 48.2 113.289 48.232 113.337 48.296C113.401 48.344 113.433 48.408 113.433 48.488V50.816ZM125 65C124.84 65 124.728 64.928 124.664 64.784L121.664 58.136C121.632 58.072 121.584 58.04 121.52 58.04H119.288C119.208 58.04 119.168 58.08 119.168 58.16V64.712C119.168 64.792 119.136 64.864 119.072 64.928C119.024 64.976 118.96 65 118.88 65H116.072C115.992 65 115.92 64.976 115.856 64.928C115.808 64.864 115.784 64.792 115.784 64.712V48.488C115.784 48.408 115.808 48.344 115.856 48.296C115.92 48.232 115.992 48.2 116.072 48.2H122.936C123.96 48.2 124.856 48.408 125.624 48.824C126.408 49.24 127.008 49.832 127.424 50.6C127.856 51.368 128.072 52.256 128.072 53.264C128.072 54.352 127.8 55.288 127.256 56.072C126.712 56.84 125.952 57.384 124.976 57.704C124.896 57.736 124.872 57.792 124.904 57.872L128.168 64.664C128.2 64.728 128.216 64.776 128.216 64.808C128.216 64.936 128.128 65 127.952 65H125ZM119.288 51.104C119.208 51.104 119.168 51.144 119.168 51.224V55.328C119.168 55.408 119.208 55.448 119.288 55.448H122.432C123.104 55.448 123.648 55.248 124.064 54.848C124.496 54.448 124.712 53.928 124.712 53.288C124.712 52.648 124.496 52.128 124.064 51.728C123.648 51.312 123.104 51.104 122.432 51.104H119.288ZM140.175 48.488C140.175 48.408 140.199 48.344 140.247 48.296C140.311 48.232 140.383 48.2 140.463 48.2H143.271C143.351 48.2 143.415 48.232 143.463 48.296C143.527 48.344 143.559 48.408 143.559 48.488V64.712C143.559 64.792 143.527 64.864 143.463 64.928C143.415 64.976 143.351 65 143.271 65H140.559C140.399 65 140.287 64.936 140.223 64.808L134.007 54.536C133.975 54.488 133.943 54.472 133.911 54.488C133.879 54.488 133.863 54.52 133.863 54.584L133.911 64.712C133.911 64.792 133.879 64.864 133.815 64.928C133.767 64.976 133.703 65 133.623 65H130.815C130.735 65 130.663 64.976 130.599 64.928C130.551 64.864 130.527 64.792 130.527 64.712V48.488C130.527 48.408 130.551 48.344 130.599 48.296C130.663 48.232 130.735 48.2 130.815 48.2H133.527C133.687 48.2 133.799 48.264 133.863 48.392L140.055 58.616C140.087 58.664 140.119 58.688 140.151 58.688C140.183 58.672 140.199 58.632 140.199 58.568L140.175 48.488ZM152.247 65.192C150.967 65.192 149.847 64.992 148.887 64.592C147.927 64.176 147.183 63.592 146.655 62.84C146.143 62.072 145.887 61.184 145.887 60.176V59.648C145.887 59.568 145.911 59.504 145.959 59.456C146.023 59.392 146.095 59.36 146.175 59.36H148.911C148.991 59.36 149.055 59.392 149.103 59.456C149.167 59.504 149.199 59.568 149.199 59.648V60.008C149.199 60.648 149.495 61.192 150.087 61.64C150.679 62.072 151.479 62.288 152.487 62.288C153.335 62.288 153.967 62.112 154.383 61.76C154.799 61.392 155.007 60.944 155.007 60.416C155.007 60.032 154.879 59.712 154.623 59.456C154.367 59.184 154.015 58.952 153.567 58.76C153.135 58.552 152.439 58.272 151.479 57.92C150.407 57.552 149.495 57.176 148.743 56.792C148.007 56.408 147.383 55.888 146.871 55.232C146.375 54.56 146.127 53.736 146.127 52.76C146.127 51.8 146.375 50.96 146.871 50.24C147.367 49.52 148.055 48.968 148.935 48.584C149.815 48.2 150.831 48.008 151.983 48.008C153.199 48.008 154.279 48.224 155.223 48.656C156.183 49.088 156.927 49.696 157.455 50.48C157.999 51.248 158.271 52.144 158.271 53.168V53.528C158.271 53.608 158.239 53.68 158.175 53.744C158.127 53.792 158.063 53.816 157.983 53.816H155.223C155.143 53.816 155.071 53.792 155.007 53.744C154.959 53.68 154.935 53.608 154.935 53.528V53.336C154.935 52.664 154.655 52.096 154.095 51.632C153.551 51.152 152.799 50.912 151.839 50.912C151.087 50.912 150.495 51.072 150.063 51.392C149.647 51.712 149.439 52.152 149.439 52.712C149.439 53.112 149.559 53.448 149.799 53.72C150.055 53.992 150.423 54.24 150.903 54.464C151.399 54.672 152.159 54.96 153.183 55.328C154.319 55.744 155.207 56.112 155.847 56.432C156.503 56.752 157.087 57.232 157.599 57.872C158.127 58.496 158.391 59.312 158.391 60.32C158.391 61.824 157.839 63.016 156.735 63.896C155.631 64.76 154.135 65.192 152.247 65.192ZM169.689 48.488C169.689 48.408 169.713 48.344 169.761 48.296C169.825 48.232 169.897 48.2 169.977 48.2H172.785C172.865 48.2 172.929 48.232 172.977 48.296C173.041 48.344 173.073 48.408 173.073 48.488V64.712C173.073 64.792 173.041 64.864 172.977 64.928C172.929 64.976 172.865 65 172.785 65H169.977C169.897 65 169.825 64.976 169.761 64.928C169.713 64.864 169.689 64.792 169.689 64.712V58.088C169.689 58.008 169.649 57.968 169.569 57.968H164.265C164.185 57.968 164.145 58.008 164.145 58.088V64.712C164.145 64.792 164.113 64.864 164.049 64.928C164.001 64.976 163.937 65 163.857 65H161.049C160.969 65 160.897 64.976 160.833 64.928C160.785 64.864 160.761 64.792 160.761 64.712V48.488C160.761 48.408 160.785 48.344 160.833 48.296C160.897 48.232 160.969 48.2 161.049 48.2H163.857C163.937 48.2 164.001 48.232 164.049 48.296C164.113 48.344 164.145 48.408 164.145 48.488V54.944C164.145 55.024 164.185 55.064 164.265 55.064H169.569C169.649 55.064 169.689 55.024 169.689 54.944V48.488ZM176.119 65C176.039 65 175.967 64.976 175.903 64.928C175.855 64.864 175.831 64.792 175.831 64.712V48.488C175.831 48.408 175.855 48.344 175.903 48.296C175.967 48.232 176.039 48.2 176.119 48.2H178.927C179.007 48.2 179.071 48.232 179.119 48.296C179.183 48.344 179.215 48.408 179.215 48.488V64.712C179.215 64.792 179.183 64.864 179.119 64.928C179.071 64.976 179.007 65 178.927 65H176.119ZM189.072 48.176C190.128 48.176 191.056 48.392 191.856 48.824C192.656 49.256 193.272 49.872 193.704 50.672C194.152 51.456 194.376 52.36 194.376 53.384C194.376 54.392 194.144 55.28 193.68 56.048C193.232 56.816 192.592 57.416 191.76 57.848C190.944 58.264 190 58.472 188.928 58.472H185.52C185.44 58.472 185.4 58.512 185.4 58.592V64.712C185.4 64.792 185.368 64.864 185.304 64.928C185.256 64.976 185.192 65 185.112 65H182.304C182.224 65 182.152 64.976 182.088 64.928C182.04 64.864 182.016 64.792 182.016 64.712V48.464C182.016 48.384 182.04 48.32 182.088 48.272C182.152 48.208 182.224 48.176 182.304 48.176H189.072ZM188.568 55.76C189.304 55.76 189.896 55.552 190.344 55.136C190.792 54.704 191.016 54.144 191.016 53.456C191.016 52.752 190.792 52.184 190.344 51.752C189.896 51.32 189.304 51.104 188.568 51.104H185.52C185.44 51.104 185.4 51.144 185.4 51.224V55.64C185.4 55.72 185.44 55.76 185.52 55.76H188.568Z" fill="white"/>
</g>
<defs>
<filter id="filter0_d_5_106" x="0" y="15" width="48" height="48" filterUnits="userSpaceOnUse" color-interpolation-filters="sRGB">
<feFlood flood-opacity="0" result="BackgroundImageFix"/>
<feColorMatrix in="SourceAlpha" type="matrix" values="0 0 0 0 0 0 0 0 0 0 0 0 0 0 0 0 0 0 127 0" result="hardAlpha"/>
<feOffset dy="4"/>
<feGaussianBlur stdDeviation="2"/>
<feComposite in2="hardAlpha" operator="out"/>
<feColorMatrix type="matrix" values="0 0 0 0 0 0 0 0 0 0 0 0 0 0 0 0 0 0 0.25 0"/>
<feBlend mode="normal" in2="BackgroundImageFix" result="effect1_dropShadow_5_106"/>
<feBlend mode="normal" in="SourceGraphic" in2="effect1_dropShadow_5_106" result="shape"/>
</filter>
<filter id="filter1_d_5_106" x="61.476" y="8.51199" width="149.06" height="33.776" filterUnits="userSpaceOnUse" color-interpolation-filters="sRGB">
<feFlood flood-opacity="0" result="BackgroundImageFix"/>
<feColorMatrix in="SourceAlpha" type="matrix" values="0 0 0 0 0 0 0 0 0 0 0 0 0 0 0 0 0 0 127 0" result="hardAlpha"/>
<feOffset dy="4"/>
<feGaussianBlur stdDeviation="2"/>
<feComposite in2="hardAlpha" operator="out"/>
<feColorMatrix type="matrix" values="0 0 0 0 0 0 0 0 0 0 0 0 0 0 0 0 0 0 0.25 0"/>
<feBlend mode="normal" in2="BackgroundImageFix" result="effect1_dropShadow_5_106"/>
<feBlend mode="normal" in="SourceGraphic" in2="effect1_dropShadow_5_106" result="shape"/>
</filter>
<filter id="filter2_d_5_106" x="61.464" y="48.008" width="136.912" height="25.184" filterUnits="userSpaceOnUse" color-interpolation-filters="sRGB">
<feFlood flood-opacity="0" result="BackgroundImageFix"/>
<feColorMatrix in="SourceAlpha" type="matrix" values="0 0 0 0 0 0 0 0 0 0 0 0 0 0 0 0 0 0 127 0" result="hardAlpha"/>
<feOffset dy="4"/>
<feGaussianBlur stdDeviation="2"/>
<feComposite in2="hardAlpha" operator="out"/>
<feColorMatrix type="matrix" values="0 0 0 0 0 0 0 0 0 0 0 0 0 0 0 0 0 0 0.25 0"/>
<feBlend mode="normal" in2="BackgroundImageFix" result="effect1_dropShadow_5_106"/>
<feBlend mode="normal" in="SourceGraphic" in2="effect1_dropShadow_5_106" result="shape"/>
</filter>
<clipPath id="clip0_5_106">
<rect width="40" height="40" fill="white" transform="translate(4 15)"/>
</clipPath>
</defs>
</svg>
